<?xml version="1.0" standalone="no"?>
<!DOCTYPE svg PUBLIC "-//W3C//DTD SVG 20010904//EN"
 "http://www.w3.org/TR/2001/REC-SVG-20010904/DTD/svg10.dtd">
<svg version="1.0" xmlns="http://www.w3.org/2000/svg"
 width="640.000000pt" height="640.000000pt" viewBox="0 0 640.000000 640.000000"
 preserveAspectRatio="xMidYMid meet">
<metadata>
Created by potrace 1.11, written by Peter Selinger 2001-2013
</metadata>
<g transform="translate(0.000000,640.000000) scale(0.100000,-0.100000)"
fill="#000000" stroke="none">
<path d="M2457 5742 c-92 -92 -167 -172 -167 -177 0 -6 32 -42 70 -80 l70 -69
0 -970 0 -971 -72 -72 -72 -73 72 -73 72 -72 0 -130 0 -130 242 -242 243 -243
282 282 283 283 0 -1110 0 -1110 148 -148 147 -147 173 173 172 172 -75 75
-75 74 0 966 0 965 77 77 77 78 -77 76 -77 76 0 127 0 126 -242 242 -243 243
-282 -282 -283 -283 0 1110 0 1110 -148 148 -147 147 -168 -168z m885 -2319
l138 -138 0 -85 0 -85 -140 -140 -140 -140 -140 140 -140 140 0 85 0 85 137
137 c76 76 140 138 143 138 2 0 67 -62 142 -137z"/>
</g>
</svg>
